<svg xmlns="http://www.w3.org/2000/svg" xmlns:xlink="http://www.w3.org/1999/xlink" xmlns:lucid="lucid" width="362" height="1360"><g transform="translate(-479 -40)" lucid:page-tab-id="0_0"><path d="M680 100c0 22.1-17.9 40-40 40s-40-17.9-40-40 17.9-40 40-40 40 17.9 40 40z" stroke="#5e5e5e" stroke-width="3" fill="#fff"/><use xlink:href="#a" transform="matrix(1,0,0,1,605,65) translate(28.82716049382716 39.65277777777778)"/><path d="M680 240c0 22.1-17.9 40-40 40s-40-17.9-40-40 17.9-40 40-40 40 17.9 40 40z" stroke="#5e5e5e" stroke-width="3" fill="#fff"/><use xlink:href="#b" transform="matrix(1,0,0,1,605,205) translate(28.82716049382716 39.65277777777778)"/><path d="M680 400c0 22.1-17.9 40-40 40s-40-17.9-40-40 17.9-40 40-40 40 17.9 40 40z" stroke="#5e5e5e" stroke-width="3" fill="#fff"/><use xlink:href="#c" transform="matrix(1,0,0,1,605,365) translate(28.82716049382716 39.65277777777778)"/><path d="M680 560c0 22.1-17.9 40-40 40s-40-17.9-40-40 17.9-40 40-40 40 17.9 40 40z" stroke="#5e5e5e" stroke-width="3" fill="#fff"/><use xlink:href="#d" transform="matrix(1,0,0,1,605,525) translate(28.82716049382716 39.65277777777778)"/><path d="M680 740c0 22.1-17.9 40-40 40s-40-17.9-40-40 17.9-40 40-40 40 17.9 40 40z" stroke="#5e5e5e" stroke-width="3" fill="#fff"/><use xlink:href="#e" transform="matrix(1,0,0,1,605,705) translate(28.82716049382716 39.65277777777778)"/><path d="M680 880c0 22.1-17.9 40-40 40s-40-17.9-40-40 17.9-40 40-40 40 17.9 40 40z" stroke="#5e5e5e" stroke-width="3" fill="#fff"/><use xlink:href="#f" transform="matrix(1,0,0,1,605,845) translate(28.82716049382716 39.65277777777778)"/><path d="M680 1060c0 22.1-17.9 40-40 40s-40-17.9-40-40 17.9-40 40-40 40 17.9 40 40z" stroke="#5e5e5e" stroke-width="3" fill="#fff"/><use xlink:href="#g" transform="matrix(1,0,0,1,605,1025) translate(10.308641975308642 39.65277777777778)"/><path d="M680 1200c0 22.1-17.9 40-40 40s-40-17.9-40-40 17.9-40 40-40 40 17.9 40 40z" stroke="#5e5e5e" stroke-width="3" fill="#fff"/><use xlink:href="#h" transform="matrix(1,0,0,1,605,1165) translate(25.370370370370367 37.92916666666667)"/><path d="M680 1340c0 22.1-17.9 40-40 40s-40-17.9-40-40 17.9-40 40-40 40 17.9 40 40z" stroke="#5e5e5e" stroke-width="3" fill="#fff"/><use xlink:href="#i" transform="matrix(1,0,0,1,605,1305) translate(26.02037037037037 37.92916666666667)"/><path d="M640 142.5V180" stroke="#5e5e5e" stroke-width="2" fill="none"/><path d="M639.98 141.5l1.02-.03v1.06h-2v-1.1" fill="#5e5e5e"/><path d="M640 195.26L635.36 181h9.28z" stroke="#5e5e5e" stroke-width="2" fill="#5e5e5e"/><path d="M641 340h-2v-9.55h2m0-20.9h-2V282.5h2" fill="#5e5e5e"/><path d="M639.98 281.5l1.02-.03v1.06h-2v-1.1M640 355.26L635.36 341h9.28z" fill="#5e5e5e"/><path d="M640 358.5l-6-18.5h12m-9.26 2l3.26 10.03 3.26-10.03" fill="#5e5e5e"/><use xlink:href="#j" transform="matrix(1,0,0,1,558.7686816666667,309.54664) translate(0 13.937813333333333)"/><use xlink:href="#k" transform="matrix(1,0,0,1,558.7686816666667,309.54664) translate(103.5173011111111 13.937813333333333)"/><use xlink:href="#l" transform="matrix(1,0,0,1,558.7686816666667,309.54664) translate(120.89117259259257 13.937813333333333)"/><path d="M641 680h-2v-19.55h2m0-20.9h-2V602.5h2" fill="#5e5e5e"/><path d="M639.98 601.5l1.02-.03v1.06h-2v-1.1M640 695.26L635.36 681h9.28z" fill="#5e5e5e"/><path d="M640 698.5l-6-18.5h12m-9.26 2l3.26 10.03 3.26-10.03" fill="#5e5e5e"/><use xlink:href="#m" transform="matrix(1,0,0,1,592.7179040740741,639.54664) translate(0 13.937813333333333)"/><use xlink:href="#k" transform="matrix(1,0,0,1,592.7179040740741,639.54664) translate(35.61885629629629 13.937813333333333)"/><use xlink:href="#l" transform="matrix(1,0,0,1,592.7179040740741,639.54664) translate(52.99272777777777 13.937813333333333)"/><path d="M641 1000h-2v-27.77h2m0-20.9h-2V922.5h2" fill="#5e5e5e"/><path d="M639.98 921.5l1.02-.03v1.06h-2v-1.1M640 1015.26l-4.64-14.26h9.28z" fill="#5e5e5e"/><path d="M640 1018.5l-6-18.5h12m-9.26 2l3.26 10.03 3.26-10.03" fill="#5e5e5e"/><use xlink:href="#n" transform="matrix(1,0,0,1,568.9316705555556,951.3191491495744) translate(0 13.937813333333333)"/><use xlink:href="#k" transform="matrix(1,0,0,1,568.9316705555556,951.3191491495744) translate(83.19132333333332 13.937813333333333)"/><use xlink:href="#l" transform="matrix(1,0,0,1,568.9316705555556,951.3191491495744) translate(100.56519481481479 13.937813333333333)"/><path d="M640 1242.5v37.5" stroke="#5e5e5e" stroke-width="2" fill="none"/><path d="M639.98 1241.5l1.02-.03v1.06h-2v-1.1" fill="#5e5e5e"/><path d="M640 1295.26l-4.64-14.26h9.28z" stroke="#5e5e5e" stroke-width="2" fill="#5e5e5e"/><path d="M719.05 739.92l2.53 2.53.92 3.42v448.26l-.92 3.42-2.53 2.53-3.42.92H700v-2h15.37l2.64-.7 1.8-1.8.7-2.63V746.13l-.7-2.64-1.8-1.8-2.63-.7H682.5v-2h33.13" fill="#5e5e5e"/><path d="M682.53 741h-1.1l.07-.98-.03-1.02h1.06M699 1204.64l-14.26-4.64 14.26-4.64z" fill="#5e5e5e"/><path d="M700 1206l-18.5-6 18.5-6m-12.03 6l10.03 3.26v-6.52" fill="#5e5e5e"/><path d="M827.55 399.92l2.53 2.53.92 3.42v803.53l-.92 3.4-2.53 2.54-3.42.92H697.1v-2h126.77l2.64-.7 1.8-1.8.7-2.63v-803l-.7-2.64-1.8-1.8-2.63-.7H682.5v-2h141.63M696.1 1219.9l-14.26-4.64 14.26-4.63z" fill="#5e5e5e"/><path d="M697.1 1221.28l-18.5-6.02 18.5-6m-12.03 6l10.03 3.26V1212M682.53 401h-1.1l.07-.98-.03-1.02h1.06M597.5 241H496.13l-2.64.7-1.8 1.8-.7 2.63v307.74l.7 2.64 1.8 1.8 2.63.7H580v2h-84.13l-3.42-.92-2.53-2.53-.92-3.42V245.87l.92-3.42 2.53-2.53 3.42-.92H597.5" fill="#5e5e5e"/><path d="M598.5 239.98l.03 1.02h-1.06v-2h1.1M595.26 560L581 564.64v-9.28z" fill="#5e5e5e"/><path d="M598.5 560l-18.5 6v-12m2 9.26l10.03-3.26-10.03-3.26M601.7 579.2H496.14l-2.64.7-1.8 1.78-.7 2.64v289.55l.7 2.64 1.8 1.8 2.63.7H580v2h-84.13l-3.42-.92-2.53-2.53-.92-3.42V584.05l.92-3.4 2.53-2.54 3.42-.9H601.7M595.26 880L581 884.64v-9.28z" fill="#5e5e5e"/><path d="M598.5 880l-18.5 6v-12m2 9.26l10.03-3.26-10.03-3.26M602.53 577.87l.73 1.32h-1.58v-2h.58" fill="#5e5e5e"/><defs><path fill="#333" d="M27 0v-27h64v-190l-56 39v-29l58-41h29v221h61V0H27" id="o"/><use transform="matrix(0.06172839506172839,0,0,0.06172839506172839,0,0)" xlink:href="#o" id="a"/><path fill="#333" d="M101-251c82-7 93 87 43 132L82-64C71-53 59-42 53-27h129V0H18c2-99 128-94 128-182 0-28-16-43-45-43s-46 15-49 41l-32-3c6-41 34-60 81-64" id="p"/><use transform="matrix(0.06172839506172839,0,0,0.06172839506172839,0,0)" xlink:href="#p" id="b"/><path fill="#333" d="M126-127c33 6 58 20 58 59 0 88-139 92-164 29-3-8-5-16-6-25l32-3c6 27 21 44 54 44 32 0 52-15 52-46 0-38-36-46-79-43v-28c39 1 72-4 72-42 0-27-17-43-46-43-28 0-47 15-49 41l-32-3c6-42 35-63 81-64 48-1 79 21 79 65 0 36-21 52-52 59" id="q"/><use transform="matrix(0.06172839506172839,0,0,0.06172839506172839,0,0)" xlink:href="#q" id="c"/><path fill="#333" d="M155-56V0h-30v-56H8v-25l114-167h33v167h35v25h-35zm-30-156c-27 46-58 90-88 131h88v-131" id="r"/><use transform="matrix(0.06172839506172839,0,0,0.06172839506172839,0,0)" xlink:href="#r" id="d"/><path fill="#333" d="M54-142c48-35 137-8 131 61C196 18 31 33 14-55l32-4c7 23 22 37 52 37 35-1 51-22 54-58 4-55-73-65-99-34H22l8-134h141v27H59" id="s"/><use transform="matrix(0.06172839506172839,0,0,0.06172839506172839,0,0)" xlink:href="#s" id="e"/><path fill="#333" d="M110-160c48 1 74 30 74 79 0 53-28 85-80 85-65 0-83-55-86-122-5-90 50-162 133-122 14 7 22 21 27 39l-31 6c-5-40-67-38-82-6-9 19-15 44-15 74 11-20 30-34 60-33zm-7 138c34 0 49-23 49-58s-16-56-50-56c-29 0-50 16-49 49 1 36 15 65 50 65" id="t"/><use transform="matrix(0.06172839506172839,0,0,0.06172839506172839,0,0)" xlink:href="#t" id="f"/><path fill="#333" d="M64 0c3-98 48-159 88-221H18v-27h164v26C143-157 98-101 97 0H64" id="u"/><path fill="#333" d="M68-38c1 34 0 65-14 84H32c9-13 17-26 17-46H33v-38h35" id="v"/><path fill="#333" d="M134-131c28 9 52 24 51 62-1 50-34 73-85 73S17-19 16-69c0-36 21-54 49-61-75-25-45-126 34-121 46 3 78 18 79 63 0 33-17 51-44 57zm-34-11c31 1 46-15 46-44 0-28-17-43-47-42-29 0-46 13-45 42 1 28 16 44 46 44zm1 122c35 0 51-18 51-52 0-30-18-46-53-46-33 0-51 17-51 47 0 34 19 51 53 51" id="w"/><path fill="#333" d="M99-251c64 0 84 50 84 122C183-37 130 33 47-8c-14-7-20-23-25-40l30-5c6 39 69 39 84 7 9-19 16-44 16-74-10 22-31 35-62 35-49 0-73-33-73-83 0-54 28-83 82-83zm-1 141c31-1 51-18 51-49 0-36-14-67-51-67-34 0-49 23-49 58 0 34 15 58 49 58" id="x"/><g id="g"><use transform="matrix(0.06172839506172839,0,0,0.06172839506172839,0,0)" xlink:href="#u"/><use transform="matrix(0.06172839506172839,0,0,0.06172839506172839,12.345679012345679,0)" xlink:href="#v"/><use transform="matrix(0.06172839506172839,0,0,0.06172839506172839,18.51851851851852,0)" xlink:href="#w"/><use transform="matrix(0.06172839506172839,0,0,0.06172839506172839,30.864197530864196,0)" xlink:href="#v"/><use transform="matrix(0.06172839506172839,0,0,0.06172839506172839,37.03703703703704,0)" xlink:href="#x"/></g><path d="M27 0v-27h64v-190l-56 39v-29l58-41h29v221h61V0H27" id="y"/><path d="M101-251c68 0 85 55 85 127S166 4 100 4C33 4 14-52 14-124c0-73 17-127 87-127zm-1 229c47 0 54-49 54-102s-4-102-53-102c-51 0-55 48-55 102 0 53 5 102 54 102" id="z"/><g id="h"><use transform="matrix(0.048148148148148155,0,0,0.048148148148148155,0,0)" xlink:href="#y"/><use transform="matrix(0.048148148148148155,0,0,0.048148148148148155,9.629629629629632,0)" xlink:href="#z"/></g><g id="i"><use transform="matrix(0.048148148148148155,0,0,0.048148148148148155,0,0)" xlink:href="#y"/><use transform="matrix(0.048148148148148155,0,0,0.048148148148148155,8.32962962962963,0)" xlink:href="#y"/></g><path d="M117-194c89-4 53 116 60 194h-32v-121c0-31-8-49-39-48C34-167 62-67 57 0H25l-1-190h30c1 10-1 24 2 32 11-22 29-35 61-36" id="A"/><path d="M141-36C126-15 110 5 73 4 37 3 15-17 15-53c-1-64 63-63 125-63 3-35-9-54-41-54-24 1-41 7-42 31l-33-3c5-37 33-52 76-52 45 0 72 20 72 64v82c-1 20 7 32 28 27v20c-31 9-61-2-59-35zM48-53c0 20 12 33 32 33 41-3 63-29 60-74-43 2-92-5-92 41" id="B"/><path d="M210-169c-67 3-38 105-44 169h-31v-121c0-29-5-50-35-48C34-165 62-65 56 0H25l-1-190h30c1 10-1 24 2 32 10-44 99-50 107 0 11-21 27-35 58-36 85-2 47 119 55 194h-31v-121c0-29-5-49-35-48" id="C"/><path d="M100-194c63 0 86 42 84 106H49c0 40 14 67 53 68 26 1 43-12 49-29l28 8c-11 28-37 45-77 45C44 4 14-33 15-96c1-61 26-98 85-98zm52 81c6-60-76-77-97-28-3 7-6 17-6 28h103" id="D"/><path d="M135-143c-3-34-86-38-87 0 15 53 115 12 119 90S17 21 10-45l28-5c4 36 97 45 98 0-10-56-113-15-118-90-4-57 82-63 122-42 12 7 21 19 24 35" id="E"/><path d="M115-194c55 1 70 41 70 98S169 2 115 4C84 4 66-9 55-30l1 105H24l-1-265h31l2 30c10-21 28-34 59-34zm-8 174c40 0 45-34 45-75s-6-73-45-74c-42 0-51 32-51 76 0 43 10 73 51 73" id="F"/><path d="M96-169c-40 0-48 33-48 73s9 75 48 75c24 0 41-14 43-38l32 2c-6 37-31 61-74 61-59 0-76-41-82-99-10-93 101-131 147-64 4 7 5 14 7 22l-32 3c-4-21-16-35-41-35" id="G"/><g id="j"><use transform="matrix(0.04839518518518518,0,0,0.04839518518518518,0,0)" xlink:href="#A"/><use transform="matrix(0.04839518518518518,0,0,0.04839518518518518,9.679037037037036,0)" xlink:href="#B"/><use transform="matrix(0.04839518518518518,0,0,0.04839518518518518,19.35807407407407,0)" xlink:href="#C"/><use transform="matrix(0.04839518518518518,0,0,0.04839518518518518,33.82823444444444,0)" xlink:href="#D"/><use transform="matrix(0.04839518518518518,0,0,0.04839518518518518,43.507271481481474,0)" xlink:href="#E"/><use transform="matrix(0.04839518518518518,0,0,0.04839518518518518,52.2184048148148,0)" xlink:href="#F"/><use transform="matrix(0.04839518518518518,0,0,0.04839518518518518,61.89744185185184,0)" xlink:href="#B"/><use transform="matrix(0.04839518518518518,0,0,0.04839518518518518,71.57647888888887,0)" xlink:href="#G"/><use transform="matrix(0.04839518518518518,0,0,0.04839518518518518,80.28761222222221,0)" xlink:href="#D"/><use transform="matrix(0.04839518518518518,0,0,0.04839518518518518,89.96664925925924,0)" xlink:href="#E"/></g><path d="M24-231v-30h32v30H24zM24 0v-190h32V0H24" id="H"/><g id="k"><use transform="matrix(0.04839518518518518,0,0,0.04839518518518518,0,0)" xlink:href="#H"/><use transform="matrix(0.04839518518518518,0,0,0.04839518518518518,3.8232196296296292,0)" xlink:href="#E"/></g><path d="M190 0L58-211 59 0H30v-248h39L202-35l-2-213h31V0h-41" id="I"/><path d="M100-194c62-1 85 37 85 99 1 63-27 99-86 99S16-35 15-95c0-66 28-99 85-99zM99-20c44 1 53-31 53-75 0-43-8-75-51-75s-53 32-53 75 10 74 51 75" id="J"/><g id="l"><use transform="matrix(0.04839518518518518,0,0,0.04839518518518518,0,0)" xlink:href="#I"/><use transform="matrix(0.04839518518518518,0,0,0.04839518518518518,12.534352962962961,0)" xlink:href="#J"/><use transform="matrix(0.04839518518518518,0,0,0.04839518518518518,22.213389999999997,0)" xlink:href="#A"/><use transform="matrix(0.04839518518518518,0,0,0.04839518518518518,31.892427037037034,0)" xlink:href="#D"/></g><path d="M24 0v-261h32V0H24" id="K"/><path d="M59-47c-2 24 18 29 38 22v24C64 9 27 4 27-40v-127H5v-23h24l9-43h21v43h35v23H59v120" id="L"/><g id="m"><use transform="matrix(0.04839518518518518,0,0,0.04839518518518518,0,0)" xlink:href="#K"/><use transform="matrix(0.04839518518518518,0,0,0.04839518518518518,3.8232196296296292,0)" xlink:href="#H"/><use transform="matrix(0.04839518518518518,0,0,0.04839518518518518,7.6464392592592585,0)" xlink:href="#C"/><use transform="matrix(0.04839518518518518,0,0,0.04839518518518518,22.116599629629626,0)" xlink:href="#H"/><use transform="matrix(0.04839518518518518,0,0,0.04839518518518518,25.939819259259256,0)" xlink:href="#L"/></g><path d="M84 4C-5 8 30-112 23-190h32v120c0 31 7 50 39 49 72-2 45-101 50-169h31l1 190h-30c-1-10 1-25-2-33-11 22-28 36-60 37" id="M"/><path d="M108 0H70L1-190h34L89-25l56-165h34" id="N"/><g id="n"><use transform="matrix(0.04839518518518518,0,0,0.04839518518518518,0,0)" xlink:href="#E"/><use transform="matrix(0.04839518518518518,0,0,0.04839518518518518,8.711133333333333,0)" xlink:href="#J"/><use transform="matrix(0.04839518518518518,0,0,0.04839518518518518,18.39017037037037,0)" xlink:href="#M"/><use transform="matrix(0.04839518518518518,0,0,0.04839518518518518,28.069207407407404,0)" xlink:href="#F"/><use transform="matrix(0.04839518518518518,0,0,0.04839518518518518,37.74824444444444,0)" xlink:href="#E"/><use transform="matrix(0.04839518518518518,0,0,0.04839518518518518,46.459377777777775,0)" xlink:href="#H"/><use transform="matrix(0.04839518518518518,0,0,0.04839518518518518,50.2825974074074,0)" xlink:href="#D"/><use transform="matrix(0.04839518518518518,0,0,0.04839518518518518,59.961634444444435,0)" xlink:href="#N"/><use transform="matrix(0.04839518518518518,0,0,0.04839518518518518,68.67276777777776,0)" xlink:href="#D"/></g></defs></g></svg>